<svg width="52" height="52" viewBox="0 0 52 52" fill="none" xmlns="http://www.w3.org/2000/svg">
<circle cx="26" cy="26" r="26" fill="#FF4CBD"/>
<path d="M34.044 17.6891C34.0367 17.675 34.0248 17.6639 34.0102 17.6579C32.3245 16.877 30.5455 16.3202 28.7179 16.0014C28.7013 15.9982 28.6842 16.0005 28.6689 16.0078C28.6536 16.0151 28.641 16.0271 28.6329 16.042C28.3907 16.4859 28.1708 16.9418 27.974 17.4081C26.004 17.1061 24.0001 17.1061 22.03 17.4081C21.832 16.9406 21.6086 16.4846 21.3608 16.042C21.3523 16.0274 21.3396 16.0157 21.3244 16.0084C21.3093 16.0012 21.2923 15.9987 21.2757 16.0014C19.4479 16.3195 17.6689 16.8764 15.9834 17.6579C15.9689 17.6641 15.9568 17.6747 15.9485 17.6881C12.5778 22.7702 11.6545 27.7273 12.1074 32.623C12.1087 32.635 12.1124 32.6466 12.1182 32.6572C12.124 32.6677 12.1318 32.677 12.1413 32.6844C14.104 34.1516 16.2993 35.2716 18.6336 35.9964C18.65 36.0014 18.6675 36.0012 18.6839 35.9958C18.7002 35.9904 18.7144 35.9801 18.7248 35.9662C19.2261 35.2775 19.6704 34.5482 20.0529 33.7858C20.0582 33.7753 20.0612 33.7639 20.0618 33.7521C20.0623 33.7404 20.0604 33.7287 20.0561 33.7178C20.0519 33.7069 20.0454 33.697 20.0371 33.6888C20.0287 33.6806 20.0188 33.6743 20.0079 33.6703C19.3074 33.3996 18.6292 33.0734 17.9797 32.6947C17.9679 32.6877 17.958 32.6778 17.9509 32.6661C17.9437 32.6543 17.9395 32.6409 17.9387 32.6271C17.9379 32.6133 17.9405 32.5995 17.9462 32.587C17.9519 32.5744 17.9606 32.5635 17.9715 32.5551C18.1082 32.4521 18.2425 32.3458 18.3743 32.2365C18.3859 32.2269 18.3999 32.2207 18.4147 32.2187C18.4295 32.2167 18.4447 32.2189 18.4583 32.2251C22.7134 34.1857 27.32 34.1857 31.5247 32.2251C31.5384 32.2185 31.5537 32.216 31.5687 32.2178C31.5838 32.2197 31.598 32.2258 31.6098 32.2355C31.7417 32.3454 31.8764 32.4519 32.0136 32.5551C32.0245 32.5634 32.0333 32.5743 32.0391 32.5868C32.0449 32.5993 32.0476 32.613 32.0469 32.6268C32.0462 32.6406 32.0421 32.654 32.035 32.6659C32.028 32.6777 32.0181 32.6876 32.0064 32.6947C31.3584 33.0766 30.6796 33.4026 29.9772 33.6692C29.9663 33.6734 29.9564 33.6799 29.9482 33.6882C29.9399 33.6965 29.9335 33.7065 29.9293 33.7175C29.9251 33.7285 29.9233 33.7403 29.9239 33.7521C29.9246 33.7638 29.9277 33.7753 29.933 33.7858C30.322 34.544 30.7656 35.2724 31.2602 35.965C31.2702 35.9792 31.2844 35.9899 31.3008 35.9955C31.3172 36.0011 31.3349 36.0014 31.3514 35.9963C33.6898 35.2739 35.889 34.1538 37.8542 32.6844C37.8637 32.6774 37.8717 32.6683 37.8775 32.6579C37.8834 32.6475 37.8869 32.636 37.888 32.624C38.4303 26.9641 36.9801 22.0476 34.044 17.6891ZM20.6884 29.642C19.4073 29.642 18.3518 28.4551 18.3518 26.9974C18.3518 25.5397 19.3868 24.3527 20.6884 24.3527C22.0001 24.3527 23.0455 25.5501 23.025 26.9973C23.025 28.4551 21.9899 29.642 20.6884 29.642ZM29.3277 29.642C28.0466 29.642 26.9911 28.4551 26.9911 26.9974C26.9911 25.5397 28.0262 24.3527 29.3277 24.3527C30.6395 24.3527 31.6848 25.5501 31.6643 26.9973C31.6643 28.4551 30.6395 29.642 29.3277 29.642Z" fill="white"/>
</svg>
