<svg width="43" height="24" viewBox="0 0 43 24" fill="none" xmlns="http://www.w3.org/2000/svg">
<path d="M9.71156 11.2615C9.84631 10.9997 10.0045 10.7031 10.1861 10.3797L5.26268 8.76563C4.83742 8.62604 4.4235 8.42059 4.03211 8.15488C4.03113 8.15425 4.03015 8.15363 4.02914 8.15287C4.02891 8.15273 4.02864 8.15267 4.02831 8.15234L1.73662 6.59377C1.73599 6.59326 1.73538 6.59288 1.73478 6.59249L0.179688 5.53488L3.19835 9.52682C3.73544 10.2371 4.40268 10.7697 5.1279 11.067L9.18711 12.7314C9.31565 12.1911 9.48833 11.6953 9.71156 11.2615Z" fill="#FF4CBD"/>
<path d="M12.5862 7.91124L11.8242 6.9522C11.8238 6.95168 11.8234 6.95098 11.8229 6.95041L10.244 4.96299C10.2437 4.96262 10.2433 4.96222 10.243 4.96166L9.67674 4.24893C9.28027 3.74979 8.82044 3.35935 8.32623 3.09256C8.32199 3.09049 8.31755 3.08942 8.31335 3.08703C8.30826 3.08436 8.30422 3.08039 8.29937 3.07754C7.90017 2.86619 7.47882 2.73571 7.0499 2.69509L2.36816 2.25287L6.32951 3.87401C7.19761 4.22928 7.97944 4.87405 8.59065 5.73856L11.2405 9.48671C11.6495 8.96325 12.0981 8.43295 12.5862 7.91124Z" fill="#FF4CBD"/>
<path d="M34.0055 5.73856C34.6167 4.87406 35.3986 4.22931 36.2666 3.87401L40.2279 2.25287L35.5462 2.69509C35.1173 2.73571 34.6961 2.86622 34.2967 3.07754C34.2919 3.08039 34.2879 3.08436 34.2828 3.08703C34.2786 3.08943 34.2741 3.09049 34.2699 3.09256C33.7757 3.35935 33.3158 3.74979 32.9194 4.24893L32.3531 4.96166C32.3528 4.96222 32.3525 4.96265 32.3521 4.96299L30.7733 6.95045C30.7727 6.95098 30.7723 6.95168 30.772 6.95223L30.0099 7.91124C30.498 8.43295 30.9466 8.96325 31.3556 9.48671L34.0055 5.73856Z" fill="#FF4CBD"/>
<path d="M32.8845 11.2615C33.1078 11.6953 33.2804 12.1911 33.409 12.7314L37.4682 11.067C38.1934 10.7697 38.8607 10.2371 39.3977 9.52681L42.4164 5.53488L40.8616 6.59222C40.8608 6.5927 40.8601 6.59324 40.8593 6.59385L38.5677 8.15232C38.5674 8.15265 38.5671 8.1527 38.5669 8.15286C38.5659 8.15362 38.5649 8.15424 38.5639 8.15487C38.1727 8.42061 37.7586 8.62602 37.3335 8.76546L32.41 10.3797C32.5916 10.7031 32.7498 10.9997 32.8845 11.2615Z" fill="#FF4CBD"/>
<path d="M6.92348 14.7789L5.6832 14.8256C5.14081 14.8461 4.59103 14.7521 4.05959 14.5533C4.05211 14.5503 4.04448 14.5479 4.03719 14.5445C3.51656 14.3467 3.0138 14.0489 2.55357 13.6591L1.34634 12.6364C1.34591 12.6362 1.34555 12.6357 1.34518 12.6355L0.179688 11.6483L2.7843 15.3087C3.6145 16.4755 4.76679 17.1734 5.94572 17.2235L8.31729 17.3244C8.16402 16.4885 8.04666 15.6124 7.98068 14.7392L6.92417 14.7789C6.92394 14.779 6.92366 14.7789 6.92348 14.7789Z" fill="#FF4CBD"/>
<path d="M41.3786 12.6365L40.1712 13.6591C39.711 14.0491 39.2082 14.3467 38.6876 14.5445C38.6803 14.548 38.6727 14.5504 38.6653 14.5534C38.1339 14.7522 37.5841 14.8462 37.0416 14.8256L35.8012 14.7789C35.801 14.7789 35.8008 14.779 35.8007 14.779L34.744 14.7392C34.6781 15.6124 34.5608 16.4885 34.4075 17.3244L36.779 17.2235C37.958 17.1734 39.1102 16.4755 39.9405 15.3087L42.545 11.6483L41.3794 12.6357C41.3792 12.6359 41.3788 12.6362 41.3786 12.6365Z" fill="#FF4CBD"/>
<path d="M29.9621 20.9747C28.3209 20.9652 26.7282 20.4541 25.1879 19.9596C23.7015 19.4825 22.2974 19.0319 20.9167 19.0319C19.5361 19.0319 18.1321 19.4825 16.6456 19.9596C15.1053 20.4541 13.5126 20.9652 11.8714 20.9747C11.8563 20.9748 11.8409 20.9748 11.8258 20.9748C11.0106 20.9748 10.2347 20.8472 9.49023 20.5888C9.96129 20.8859 10.5143 21.1827 11.1581 21.4674C13.0231 22.2925 16.2299 23.2759 20.9167 23.2759C25.6036 23.2759 28.8104 22.2925 30.6754 21.4674C31.3192 21.1827 31.8723 20.8859 32.3434 20.5887C31.5989 20.8472 30.8229 20.9748 30.0077 20.9748C29.9925 20.9748 29.9773 20.9748 29.9621 20.9747Z" fill="white"/>
<path d="M21.3398 2.05597C27.2236 2.05597 31.9171 6.30417 33.6621 8.13059H9.01758C10.7625 6.30417 15.456 2.05597 21.3398 2.05597Z" fill="white"/>
<path d="M35.3292 11.9057C35.3246 11.8838 35.3232 11.8621 35.3221 11.8405C35.1342 10.9762 34.8757 10.1492 34.5353 9.44314C34.5334 9.44051 34.5313 9.4381 34.5294 9.43547C34.508 9.40376 34.4934 9.36952 34.4818 9.33463C34.2469 8.86819 33.9752 8.458 33.6624 8.13059C31.9175 6.30416 27.224 5.47002 21.3402 5.47002C15.4564 5.47002 10.7629 6.30416 9.01795 8.13059C8.70514 8.458 8.43344 8.86819 8.19861 9.33463C8.18715 9.36952 8.17241 9.40376 8.15101 9.43547C8.14911 9.4381 8.14694 9.44051 8.14509 9.44314C7.80466 10.1492 7.54616 10.9762 7.35825 11.8405C7.35719 11.8621 7.35576 11.8838 7.35127 11.9057C7.34604 11.9309 7.33817 11.9549 7.32887 11.9778C6.83011 14.3761 6.86619 17.0235 7.19949 18.1473C7.20462 18.1647 7.21091 18.1828 7.21719 18.2007C10.4796 20.7754 13.6392 19.8514 16.6958 18.9574C18.2214 18.5111 19.7992 18.0496 21.3402 18.0496C22.8812 18.0496 24.4589 18.5111 25.9848 18.9574C29.0411 19.8517 32.2007 20.7754 35.4632 18.2007C35.4694 18.1828 35.4758 18.1647 35.4809 18.1473C35.8142 17.0235 35.8503 14.3761 35.3515 11.9778C35.3423 11.9549 35.3343 11.9309 35.3292 11.9057ZM14.7131 12.5307C14.3003 13.3182 13.7146 13.8679 13.1461 14.0012C13.056 14.0224 12.9679 14.0329 12.8821 14.0329C12.6683 14.0329 12.4703 13.9675 12.2996 13.8389C11.6408 13.3426 11.628 12.0449 12.2699 10.8204C12.6826 10.0328 13.2684 9.48313 13.8368 9.34991C14.1517 9.27612 14.4444 9.33211 14.6832 9.51217C15.3419 10.0086 15.3547 11.3062 14.7131 12.5307ZM30.3807 13.8389C30.2102 13.9675 30.012 14.0327 29.7982 14.0329C29.7125 14.0329 29.6243 14.0224 29.5343 14.0012C28.9658 13.8679 28.3801 13.3182 27.9673 12.5307C27.3257 11.3062 27.3384 10.0086 27.9972 9.51217C28.236 9.33222 28.5288 9.27612 28.8437 9.34991C29.412 9.48313 29.9977 10.0328 30.4106 10.8204C31.0524 12.0449 31.0395 13.3426 30.3807 13.8389Z" fill="#FF4CBD"/>
</svg>
