<svg width="216" height="26" viewBox="0 0 216 26" fill="none" xmlns="http://www.w3.org/2000/svg">
<path d="M9.71156 12.2615C9.84631 11.9997 10.0045 11.7031 10.1861 11.3797L5.26268 9.76563C4.83742 9.62604 4.4235 9.42059 4.03211 9.15488C4.03113 9.15425 4.03015 9.15363 4.02914 9.15287C4.02891 9.15273 4.02864 9.15267 4.02831 9.15234L1.73662 7.59377C1.73599 7.59326 1.73538 7.59288 1.73478 7.59249L0.179688 6.53488L3.19835 10.5268C3.73544 11.2371 4.40268 11.7697 5.1279 12.067L9.18711 13.7314C9.31565 13.1911 9.48833 12.6953 9.71156 12.2615Z" fill="#FF4CBD"/>
<path d="M12.5862 8.91124L11.8242 7.9522C11.8238 7.95168 11.8234 7.95098 11.8229 7.95041L10.244 5.96299C10.2437 5.96262 10.2433 5.96222 10.243 5.96166L9.67674 5.24893C9.28027 4.74979 8.82044 4.35935 8.32623 4.09256C8.32199 4.09049 8.31755 4.08942 8.31335 4.08703C8.30826 4.08436 8.30422 4.08039 8.29937 4.07754C7.90017 3.86619 7.47882 3.73571 7.0499 3.69509L2.36816 3.25287L6.32951 4.87401C7.19761 5.22928 7.97944 5.87405 8.59065 6.73856L11.2405 10.4867C11.6495 9.96325 12.0981 9.43295 12.5862 8.91124Z" fill="#FF4CBD"/>
<path d="M34.0055 6.73856C34.6167 5.87406 35.3986 5.22931 36.2666 4.87401L40.2279 3.25287L35.5462 3.69509C35.1173 3.73571 34.6961 3.86622 34.2967 4.07754C34.2919 4.08039 34.2879 4.08436 34.2828 4.08703C34.2786 4.08943 34.2741 4.09049 34.2699 4.09256C33.7757 4.35935 33.3158 4.74979 32.9194 5.24893L32.3531 5.96166C32.3528 5.96222 32.3525 5.96265 32.3521 5.96299L30.7733 7.95045C30.7727 7.95098 30.7723 7.95168 30.772 7.95223L30.0099 8.91124C30.498 9.43295 30.9466 9.96325 31.3556 10.4867L34.0055 6.73856Z" fill="#FF4CBD"/>
<path d="M32.8845 12.2615C33.1078 12.6953 33.2804 13.1911 33.409 13.7314L37.4682 12.067C38.1934 11.7697 38.8607 11.2371 39.3977 10.5268L42.4164 6.53488L40.8616 7.59222C40.8608 7.5927 40.8601 7.59324 40.8593 7.59385L38.5677 9.15232C38.5674 9.15265 38.5671 9.1527 38.5669 9.15286C38.5659 9.15362 38.5649 9.15424 38.5639 9.15487C38.1727 9.42061 37.7586 9.62602 37.3335 9.76546L32.41 11.3797C32.5916 11.7031 32.7498 11.9997 32.8845 12.2615Z" fill="#FF4CBD"/>
<path d="M6.92348 15.7789L5.6832 15.8256C5.14081 15.8461 4.59103 15.7521 4.05959 15.5533C4.05211 15.5503 4.04448 15.5479 4.03719 15.5445C3.51656 15.3467 3.0138 15.0489 2.55357 14.6591L1.34634 13.6364C1.34591 13.6362 1.34555 13.6357 1.34518 13.6355L0.179688 12.6483L2.7843 16.3087C3.6145 17.4755 4.76679 18.1734 5.94572 18.2235L8.31729 18.3244C8.16402 17.4885 8.04666 16.6124 7.98068 15.7392L6.92417 15.7789C6.92394 15.779 6.92366 15.7789 6.92348 15.7789Z" fill="#FF4CBD"/>
<path d="M41.3786 13.6365L40.1712 14.6591C39.711 15.0491 39.2082 15.3467 38.6876 15.5445C38.6803 15.548 38.6727 15.5504 38.6653 15.5534C38.1339 15.7522 37.5841 15.8462 37.0416 15.8256L35.8012 15.7789C35.801 15.7789 35.8008 15.779 35.8007 15.779L34.744 15.7392C34.6781 16.6125 34.5608 17.4885 34.4075 18.3244L36.779 18.2235C37.958 18.1734 39.1102 17.4755 39.9405 16.3087L42.545 12.6483L41.3794 13.6357C41.3792 13.6359 41.3788 13.6362 41.3786 13.6365Z" fill="#FF4CBD"/>
<path d="M29.9621 21.9747C28.3209 21.9652 26.7282 21.4541 25.1879 20.9596C23.7015 20.4825 22.2974 20.0319 20.9167 20.0319C19.5361 20.0319 18.1321 20.4825 16.6456 20.9596C15.1053 21.4541 13.5126 21.9652 11.8714 21.9747C11.8563 21.9748 11.8409 21.9748 11.8258 21.9748C11.0106 21.9748 10.2347 21.8472 9.49023 21.5888C9.96129 21.8859 10.5143 22.1827 11.1581 22.4674C13.0231 23.2925 16.2299 24.2759 20.9167 24.2759C25.6036 24.2759 28.8104 23.2925 30.6754 22.4674C31.3192 22.1827 31.8723 21.8859 32.3434 21.5887C31.5989 21.8472 30.8229 21.9748 30.0077 21.9748C29.9925 21.9748 29.9773 21.9748 29.9621 21.9747Z" fill="white"/>
<path d="M21.3398 3.05597C27.2236 3.05597 31.9171 7.30417 33.6621 9.13059H9.01758C10.7625 7.30417 15.456 3.05597 21.3398 3.05597Z" fill="white"/>
<path d="M35.3292 12.9057C35.3246 12.8838 35.3232 12.8621 35.3221 12.8405C35.1342 11.9762 34.8757 11.1492 34.5353 10.4431C34.5334 10.4405 34.5313 10.4381 34.5294 10.4355C34.508 10.4038 34.4934 10.3695 34.4818 10.3346C34.2469 9.86819 33.9752 9.458 33.6624 9.13059C31.9175 7.30416 27.224 6.47002 21.3402 6.47002C15.4564 6.47002 10.7629 7.30416 9.01795 9.13059C8.70514 9.458 8.43344 9.86819 8.19861 10.3346C8.18715 10.3695 8.17241 10.4038 8.15101 10.4355C8.14911 10.4381 8.14694 10.4405 8.14509 10.4431C7.80466 11.1492 7.54616 11.9762 7.35825 12.8405C7.35719 12.8621 7.35576 12.8838 7.35127 12.9057C7.34604 12.9309 7.33817 12.9549 7.32887 12.9778C6.83011 15.3761 6.86619 18.0235 7.19949 19.1473C7.20462 19.1647 7.21091 19.1828 7.21719 19.2007C10.4796 21.7754 13.6392 20.8514 16.6958 19.9574C18.2214 19.5111 19.7992 19.0496 21.3402 19.0496C22.8812 19.0496 24.4589 19.5111 25.9848 19.9574C29.0411 20.8517 32.2007 21.7754 35.4632 19.2007C35.4694 19.1828 35.4758 19.1647 35.4809 19.1473C35.8142 18.0235 35.8503 15.3761 35.3515 12.9778C35.3423 12.9549 35.3343 12.9309 35.3292 12.9057ZM14.7131 13.5307C14.3003 14.3182 13.7146 14.8679 13.1461 15.0012C13.056 15.0224 12.9679 15.0329 12.8821 15.0329C12.6683 15.0329 12.4703 14.9675 12.2996 14.8389C11.6408 14.3426 11.628 13.0449 12.2699 11.8204C12.6826 11.0328 13.2684 10.4831 13.8368 10.3499C14.1517 10.2761 14.4444 10.3321 14.6832 10.5122C15.3419 11.0086 15.3547 12.3062 14.7131 13.5307ZM30.3807 14.8389C30.2102 14.9675 30.012 15.0327 29.7982 15.0329C29.7125 15.0329 29.6243 15.0224 29.5343 15.0012C28.9658 14.8679 28.3801 14.3182 27.9673 13.5307C27.3257 12.3062 27.3384 11.0086 27.9972 10.5122C28.236 10.3322 28.5288 10.2761 28.8437 10.3499C29.412 10.4831 29.9977 11.0328 30.4106 11.8204C31.0524 13.0449 31.0395 14.3426 30.3807 14.8389Z" fill="#FF4CBD"/>
<path d="M69.368 10.756V8.104C69.368 6.622 68.172 5.452 66.716 5.452H54.652C53.17 5.452 52 6.622 52 8.104C52 8.182 52 8.286 52 8.364V9.378C52 11.51 53.56 12.316 55.874 13.252L62.582 15.696H52V18.348C52 19.83 53.17 21 54.652 21H66.716C68.172 21 69.368 19.83 69.368 18.348C69.368 18.296 69.368 18.218 69.368 18.14V18.166V17.126C69.368 14.994 67.782 14.188 65.494 13.252L58.604 10.756H69.368ZM87.4581 5.452H82.2061V13.876C82.2061 15.098 81.2181 16.06 80.0221 16.06H78.0721C76.8761 16.06 75.8881 15.098 75.8881 13.876V5.452H70.6621V15.774C70.6621 18.66 73.0021 21 75.8881 21H82.2061C85.0921 21 87.4581 18.66 87.4581 15.774V5.452ZM100.414 9.482V11.276H93.8616V9.482H100.414ZM105.25 9.716C105.25 7.376 103.352 5.478 101.012 5.478V5.452H90.7676V5.478H88.7656V21H93.8616V15.722H101.012C103.352 15.722 105.25 13.85 105.25 11.51V9.716ZM113.299 9.638H122.893V5.452H106.955H106.539V21H113.299H122.893V16.814H113.299V15.332H122.893V11.12H113.299V9.638ZM136.665 10.366V10.522C136.665 11.016 135.833 11.432 134.793 11.432H129.437V9.456H134.793C135.833 9.456 136.665 9.872 136.665 10.366ZM143.295 21L140.071 14.708C141.007 13.928 141.579 12.732 141.579 11.406V9.82C141.579 7.402 139.629 5.452 137.211 5.452H129.437H124.575H124.211V21H129.437V15.774H135.235L137.913 21H143.295ZM161.213 21V15.852H150.189V5.452H144.625V21H151.307H161.213ZM175.473 11.536V14.916C175.473 15.722 174.823 16.372 174.017 16.372H168.401C167.621 16.372 166.971 15.722 166.971 14.916V11.536C166.971 10.73 167.621 10.08 168.401 10.08H174.017C174.823 10.08 175.473 10.73 175.473 11.536ZM179.919 10.184C179.919 7.558 177.787 5.452 175.161 5.452H167.257C164.631 5.452 162.525 7.558 162.525 10.184V16.268C162.525 18.894 164.631 21 167.257 21H175.161C177.787 21 179.919 18.894 179.919 16.268V10.184ZM196.761 10.964V5.452H191.717H186.231H181.213V10.964H186.231V21H191.717V10.964H196.761ZM214.66 21V15.852H203.636V5.452H198.072V21H204.754H214.66Z" fill="white"/>
</svg>
