<svg width="52" height="52" viewBox="0 0 52 52" fill="none" xmlns="http://www.w3.org/2000/svg">
<circle cx="26" cy="26" r="26" fill="#FF4CBD"/>
<path d="M38.3579 20.8963C38.344 19.8501 38.1481 18.8144 37.7791 17.8354C37.4592 17.0096 36.9705 16.2597 36.3443 15.6335C35.7181 15.0072 34.9681 14.5185 34.1423 14.1986C33.1759 13.8358 32.1549 13.6396 31.1229 13.6184C29.7941 13.5591 29.3729 13.5425 25.9998 13.5425C22.6268 13.5425 22.1945 13.5425 20.8754 13.6184C19.8438 13.6398 18.8234 13.836 17.8574 14.1986C17.0315 14.5183 16.2814 15.0069 15.6552 15.6332C15.0289 16.2594 14.5403 17.0095 14.2205 17.8354C13.857 18.8011 13.6613 19.8218 13.6418 20.8534C13.5824 22.1836 13.5645 22.6049 13.5645 25.9779C13.5645 29.3509 13.5645 29.7818 13.6418 31.1023C13.6625 32.1355 13.8573 33.1549 14.2205 34.1231C14.5408 34.9488 15.0298 35.6985 15.6563 36.3245C16.2827 36.9505 17.0329 37.4389 17.8588 37.7586C18.8221 38.1359 19.8427 38.3461 20.8768 38.3801C22.2069 38.4395 22.6282 38.4575 26.0012 38.4575C29.3742 38.4575 29.8066 38.4575 31.1257 38.3801C32.1577 38.3598 33.1787 38.1641 34.1451 37.8014C34.9706 37.481 35.7204 36.9922 36.3466 36.366C36.9727 35.7399 37.4616 34.9901 37.7819 34.1645C38.1452 33.1977 38.3399 32.1783 38.3607 31.1437C38.42 29.815 38.438 29.3937 38.438 26.0193C38.4352 22.6463 38.4352 22.2181 38.3579 20.8963ZM25.9916 32.3565C22.4638 32.3565 19.606 29.4987 19.606 25.971C19.606 22.4433 22.4638 19.5854 25.9916 19.5854C27.6851 19.5854 29.3093 20.2582 30.5068 21.4557C31.7043 22.6532 32.3771 24.2774 32.3771 25.971C32.3771 27.6645 31.7043 29.2887 30.5068 30.4862C29.3093 31.6837 27.6851 32.3565 25.9916 32.3565ZM32.6312 20.8382C32.4356 20.8384 32.2419 20.8 32.0612 20.7253C31.8805 20.6505 31.7163 20.5408 31.578 20.4025C31.4396 20.2642 31.33 20.1 31.2552 19.9193C31.1804 19.7385 31.1421 19.5448 31.1422 19.3493C31.1422 19.1538 31.1807 18.9603 31.2555 18.7797C31.3303 18.5991 31.44 18.4351 31.5782 18.2969C31.7164 18.1587 31.8804 18.049 32.061 17.9742C32.2416 17.8995 32.4351 17.861 32.6305 17.861C32.826 17.861 33.0195 17.8995 33.2001 17.9742C33.3807 18.049 33.5447 18.1587 33.6829 18.2969C33.8211 18.4351 33.9308 18.5991 34.0055 18.7797C34.0803 18.9603 34.1188 19.1538 34.1188 19.3493C34.1188 20.1725 33.4531 20.8382 32.6312 20.8382Z" fill="white"/>
<path d="M25.9916 30.1189C28.2824 30.1189 30.1395 28.2618 30.1395 25.971C30.1395 23.6802 28.2824 21.8231 25.9916 21.8231C23.7007 21.8231 21.8437 23.6802 21.8437 25.971C21.8437 28.2618 23.7007 30.1189 25.9916 30.1189Z" fill="white"/>
</svg>
