<svg width="52" height="52" viewBox="0 0 52 52" fill="none" xmlns="http://www.w3.org/2000/svg">
<circle cx="26" cy="26" r="26" fill="#FF4CBD"/>
<path d="M38.6128 18.3484C37.7082 18.7493 36.7365 19.0201 35.7149 19.1425C36.769 18.5118 37.5576 17.5191 37.9336 16.3497C36.9432 16.9379 35.8594 17.352 34.7291 17.5738C33.969 16.7623 32.9622 16.2244 31.8651 16.0436C30.768 15.8628 29.6418 16.0494 28.6616 16.5742C27.6813 17.099 26.9017 17.9328 26.4439 18.9461C25.9861 19.9594 25.8756 21.0955 26.1296 22.178C24.1229 22.0772 22.1598 21.5557 20.3678 20.6471C18.5757 19.7386 16.9947 18.4634 15.7274 16.9043C15.2941 17.6518 15.0449 18.5185 15.0449 19.4415C15.0444 20.2724 15.249 21.0906 15.6406 21.8235C16.0322 22.5563 16.5986 23.1812 17.2896 23.6427C16.4882 23.6172 15.7045 23.4006 15.0037 23.0111V23.0761C15.0037 24.2415 15.4068 25.371 16.1447 26.273C16.8826 27.175 17.9099 27.7939 19.0521 28.0248C18.3087 28.2259 17.5293 28.2556 16.7728 28.1114C17.0951 29.1142 17.7229 29.991 18.5683 30.6193C19.4137 31.2475 20.4344 31.5956 21.4875 31.6149C19.6998 33.0183 17.492 33.7795 15.2193 33.7762C14.8167 33.7763 14.4145 33.7528 14.0146 33.7058C16.3216 35.189 19.007 35.9762 21.7496 35.9732C31.0338 35.9732 36.1092 28.2837 36.1092 21.6147C36.1092 21.398 36.1038 21.1792 36.0941 20.9625C37.0813 20.2486 37.9335 19.3645 38.6106 18.3517L38.6128 18.3484Z" fill="white"/>
</svg>
